<svg width="28" height="28" viewBox="0 0 28 28" fill="none" xmlns="http://www.w3.org/2000/svg">
<path d="M25.3516 21L16.0182 4.66664C15.8147 4.30755 15.5196 4.00886 15.163 3.80106C14.8064 3.59325 14.401 3.48376 13.9883 3.48376C13.5755 3.48376 13.1701 3.59325 12.8135 3.80106C12.4569 4.00886 12.1618 4.30755 11.9583 4.66664L2.62492 21C2.41921 21.3562 2.31135 21.7605 2.31226 22.1719C2.31317 22.5833 2.42283 22.9871 2.63011 23.3424C2.83739 23.6978 3.13492 23.992 3.49256 24.1953C3.8502 24.3986 4.25523 24.5037 4.66658 24.5H23.3333C23.7426 24.4996 24.1447 24.3914 24.4991 24.1865C24.8535 23.9815 25.1477 23.6869 25.3522 23.3323C25.5567 22.9776 25.6643 22.5754 25.6642 22.166C25.6641 21.7567 25.5563 21.3545 25.3516 21Z" stroke="#00A63E" stroke-width="2.33333" stroke-linecap="round" stroke-linejoin="round"/>
<path d="M14 10.5V15.1667" stroke="#00A63E" stroke-width="2.33333" stroke-linecap="round" stroke-linejoin="round"/>
<path d="M14 19.8334H14.0117" stroke="#00A63E" stroke-width="2.33333" stroke-linecap="round" stroke-linejoin="round"/>
</svg>
