<svg width="21" height="21" viewBox="0 0 21 21" fill="none" xmlns="http://www.w3.org/2000/svg">
<path d="M17.5 11.375C17.5 15.75 14.4375 17.9375 10.7975 19.2063C10.6069 19.2709 10.3998 19.2678 10.2113 19.1975C6.5625 17.9375 3.5 15.75 3.5 11.375V5.25003C3.5 5.01796 3.59219 4.7954 3.75628 4.63131C3.92038 4.46721 4.14294 4.37503 4.375 4.37503C6.125 4.37503 8.3125 3.32503 9.835 1.99503C10.0204 1.83665 10.2562 1.74963 10.5 1.74963C10.7438 1.74963 10.9796 1.83665 11.165 1.99503C12.6963 3.33378 14.875 4.37503 16.625 4.37503C16.8571 4.37503 17.0796 4.46721 17.2437 4.63131C17.4078 4.7954 17.5 5.01796 17.5 5.25003V11.375Z" stroke="#155DFC" stroke-width="1.75" stroke-linecap="round" stroke-linejoin="round"/>
</svg>
