<svg width="14" height="14" viewBox="0 0 14 14" fill="none" xmlns="http://www.w3.org/2000/svg">
<path d="M8.75004 12.8334V10.5001C8.8312 9.76933 8.62167 9.03599 8.16671 8.45841C9.91671 8.45841 11.6667 7.29175 11.6667 5.25008C11.7134 4.52091 11.5092 3.80341 11.0834 3.20841C11.2467 2.53758 11.2467 1.83758 11.0834 1.16675C11.0834 1.16675 10.5 1.16675 9.33338 2.04175C7.79338 1.75008 6.20671 1.75008 4.66671 2.04175C3.50004 1.16675 2.91671 1.16675 2.91671 1.16675C2.74171 1.83758 2.74171 2.53758 2.91671 3.20841C2.49197 3.80101 2.28582 4.52254 2.33338 5.25008C2.33338 7.29175 4.08338 8.45841 5.83338 8.45841C5.60588 8.74425 5.43671 9.07091 5.33754 9.42091C5.23838 9.77091 5.20921 10.1384 5.25004 10.5001V12.8334" stroke="#D1D5DC" stroke-width="1.16667" stroke-linecap="round" stroke-linejoin="round"/>
<path d="M5.25008 10.4999C2.61925 11.6666 2.33341 9.33325 1.16675 9.33325" stroke="#D1D5DC" stroke-width="1.16667" stroke-linecap="round" stroke-linejoin="round"/>
</svg>
