<svg width="21" height="21" viewBox="0 0 21 21" fill="none" xmlns="http://www.w3.org/2000/svg">
<path d="M14 18.375V16.625C14 15.6967 13.6313 14.8065 12.9749 14.1501C12.3185 13.4937 11.4283 13.125 10.5 13.125H5.25C4.32174 13.125 3.4315 13.4937 2.77513 14.1501C2.11875 14.8065 1.75 15.6967 1.75 16.625V18.375" stroke="#155DFC" stroke-width="1.75" stroke-linecap="round" stroke-linejoin="round"/>
<path d="M14 2.73706C14.7505 2.93163 15.4152 3.36992 15.8897 3.98312C16.3642 4.59631 16.6217 5.34971 16.6217 6.12506C16.6217 6.90041 16.3642 7.65381 15.8897 8.26701C15.4152 8.8802 14.7505 9.31849 14 9.51306" stroke="#155DFC" stroke-width="1.75" stroke-linecap="round" stroke-linejoin="round"/>
<path d="M19.25 18.375V16.625C19.2494 15.8495 18.9913 15.0962 18.5162 14.4833C18.0411 13.8704 17.3759 13.4326 16.625 13.2388" stroke="#155DFC" stroke-width="1.75" stroke-linecap="round" stroke-linejoin="round"/>
<path d="M7.875 9.625C9.808 9.625 11.375 8.058 11.375 6.125C11.375 4.192 9.808 2.625 7.875 2.625C5.942 2.625 4.375 4.192 4.375 6.125C4.375 8.058 5.942 9.625 7.875 9.625Z" stroke="#155DFC" stroke-width="1.75" stroke-linecap="round" stroke-linejoin="round"/>
</svg>
