<svg width="28" height="28" viewBox="0 0 28 28" fill="none" xmlns="http://www.w3.org/2000/svg">
<path d="M23.3334 15.1666C23.3334 21 19.2501 23.9166 14.3967 25.6083C14.1426 25.6944 13.8665 25.6903 13.6151 25.5966C8.75008 23.9166 4.66675 21 4.66675 15.1666V6.99995C4.66675 6.69054 4.78966 6.39379 5.00846 6.175C5.22725 5.9562 5.524 5.83329 5.83341 5.83329C8.16675 5.83329 11.0834 4.43329 13.1134 2.65995C13.3606 2.44879 13.675 2.33276 14.0001 2.33276C14.3252 2.33276 14.6396 2.44879 14.8867 2.65995C16.9284 4.44495 19.8334 5.83329 22.1667 5.83329C22.4762 5.83329 22.7729 5.9562 22.9917 6.175C23.2105 6.39379 23.3334 6.69054 23.3334 6.99995V15.1666Z" stroke="#00A63E" stroke-width="2.33333" stroke-linecap="round" stroke-linejoin="round"/>
</svg>
